<?xml version="1.0" encoding="UTF-8"?>
<!DOCTYPE svg
PUBLIC "-//W3C//DTD SVG 1.1//EN"
       "http://www.w3.org/Graphics/SVG/1.1/DTD/svg11.dtd">
<svg viewBox="127 78 859 608" width="732px" height="530px" xmlns="http://www.w3.org/2000/svg" version="1.1">
   <line x1="142" y1="200" x2="132" y2="200" style="stroke:#bbb;stroke-width:1;"/>
   <line x1="135" y1="443" x2="145" y2="443" style="stroke:#bbb;stroke-width:1;"/>
   <line x1="132" y1="200" x2="135" y2="443" style="stroke:#bbb;stroke-width:1;"/>
   <line x1="134.5" y1="200" x2="138.03553390593" y2="203.53553390593" style="stroke:#bbb;stroke-width:2;"/>
   <line x1="134.5" y1="200" x2="138.03553390593" y2="196.46446609407" style="stroke:#bbb;stroke-width:2;"/>
   <line x1="140" y1="443" x2="136.46446609407" y2="446.53553390593" style="stroke:#bbb;stroke-width:2;"/>
   <line x1="140" y1="443" x2="136.46446609407" y2="439.46446609407" style="stroke:#bbb;stroke-width:2;"/>
   <line x1="242" y1="180" x2="252" y2="180" style="stroke:#cb0;stroke-width:1;"/>
   <line x1="436" y1="123" x2="446" y2="123" style="stroke:#cb0;stroke-width:1;"/>
   <line x1="252" y1="180" x2="436" y2="123" style="stroke:#cb0;stroke-width:1;"/>
   <line x1="249.5" y1="180" x2="245.96446609407" y2="183.53553390593" style="stroke:#cb0;stroke-width:2;"/>
   <line x1="249.5" y1="180" x2="245.96446609407" y2="176.46446609407" style="stroke:#cb0;stroke-width:2;"/>
   <line x1="441" y1="123" x2="437.46446609407" y2="126.53553390593" style="stroke:#cb0;stroke-width:2;"/>
   <line x1="441" y1="123" x2="437.46446609407" y2="119.46446609407" style="stroke:#cb0;stroke-width:2;"/>
   <line x1="239" y1="583" x2="249" y2="583" style="stroke:#0bf;stroke-width:1;"/>
   <line x1="527" y1="541" x2="537" y2="541" style="stroke:#0bf;stroke-width:1;"/>
   <line x1="249" y1="583" x2="527" y2="541" style="stroke:#0bf;stroke-width:1;"/>
   <line x1="246.5" y1="583" x2="242.96446609407" y2="586.53553390593" style="stroke:#0bf;stroke-width:2;"/>
   <line x1="246.5" y1="583" x2="242.96446609407" y2="579.46446609407" style="stroke:#0bf;stroke-width:2;"/>
   <line x1="532" y1="541" x2="528.46446609407" y2="544.53553390593" style="stroke:#0bf;stroke-width:2;"/>
   <line x1="532" y1="541" x2="528.46446609407" y2="537.46446609407" style="stroke:#0bf;stroke-width:2;"/>
   <line x1="564" y1="203" x2="574" y2="203" style="stroke:#cb0;stroke-width:1;"/>
   <line x1="752" y1="167" x2="762" y2="167" style="stroke:#cb0;stroke-width:1;"/>
   <line x1="574" y1="203" x2="752" y2="167" style="stroke:#cb0;stroke-width:1;"/>
   <line x1="571.5" y1="203" x2="567.96446609407" y2="206.53553390593" style="stroke:#cb0;stroke-width:2;"/>
   <line x1="571.5" y1="203" x2="567.96446609407" y2="199.46446609407" style="stroke:#cb0;stroke-width:2;"/>
   <line x1="757" y1="167" x2="753.46446609407" y2="170.53553390593" style="stroke:#cb0;stroke-width:2;"/>
   <line x1="757" y1="167" x2="753.46446609407" y2="163.46446609407" style="stroke:#cb0;stroke-width:2;"/>
   <rect width="100" height="20" x="142" y="130" style="fill:#007;stroke:black;"/>
   <text width="100" height="20" x="147" y="144" style="fill:#fff;" font-family="Arial" font-size="16px"> bets</text>
   <rect width="100" height="20" x="142" y="150" style="fill:#aea;stroke:black;"/>
   <text width="100" height="20" x="147" y="164" style="fill:black;" font-family="Arial" font-size="16px">bet_id</text>
   <rect width="100" height="20" x="142" y="170" style="fill:none;stroke:black;"/>
   <text width="100" height="20" x="147" y="184" style="fill:black;" font-family="Arial" font-size="16px">user_id</text>
   <rect width="100" height="20" x="142" y="190" style="fill:none;stroke:black;"/>
   <text width="100" height="20" x="147" y="204" style="fill:black;" font-family="Arial" font-size="16px">event_id</text>
   <rect width="100" height="20" x="142" y="210" style="fill:none;stroke:black;"/>
   <text width="100" height="20" x="147" y="224" style="fill:black;" font-family="Arial" font-size="16px">bet_amount</text>
   <rect width="100" height="20" x="142" y="230" style="fill:none;stroke:black;"/>
   <text width="100" height="20" x="147" y="244" style="fill:black;" font-family="Arial" font-size="16px">bet_choice</text>
   <rect width="100" height="20" x="142" y="250" style="fill:none;stroke:black;"/>
   <text width="100" height="20" x="147" y="264" style="fill:black;" font-family="Arial" font-size="16px">bet_date</text>
   <rect width="100" height="20" x="142" y="270" style="fill:none;stroke:black;"/>
   <text width="100" height="20" x="147" y="284" style="fill:black;" font-family="Arial" font-size="16px">potential_win</text>
   <rect width="100" height="20" x="142" y="290" style="fill:none;stroke:black;"/>
   <text width="100" height="20" x="147" y="304" style="fill:black;" font-family="Arial" font-size="16px">outcome</text>
   <rect width="94" height="20" x="537" y="511" style="fill:#007;stroke:black;"/>
   <text width="94" height="20" x="542" y="525" style="fill:#fff;" font-family="Arial" font-size="16px"> bet_results</text>
   <rect width="94" height="20" x="537" y="531" style="fill:#aea;stroke:black;"/>
   <text width="94" height="20" x="542" y="545" style="fill:black;" font-family="Arial" font-size="16px">result_id</text>
   <rect width="94" height="20" x="537" y="551" style="fill:none;stroke:black;"/>
   <text width="94" height="20" x="542" y="565" style="fill:black;" font-family="Arial" font-size="16px">result_name</text>
   <rect width="94" height="20" x="145" y="413" style="fill:#007;stroke:black;"/>
   <text width="94" height="20" x="150" y="427" style="fill:#fff;" font-family="Arial" font-size="16px"> events</text>
   <rect width="94" height="20" x="145" y="433" style="fill:#aea;stroke:black;"/>
   <text width="94" height="20" x="150" y="447" style="fill:black;" font-family="Arial" font-size="16px">event_id</text>
   <rect width="94" height="20" x="145" y="453" style="fill:none;stroke:black;"/>
   <text width="94" height="20" x="150" y="467" style="fill:black;" font-family="Arial" font-size="16px">event_name</text>
   <rect width="94" height="20" x="145" y="473" style="fill:none;stroke:black;"/>
   <text width="94" height="20" x="150" y="487" style="fill:black;" font-family="Arial" font-size="16px">event_date</text>
   <rect width="94" height="20" x="145" y="493" style="fill:none;stroke:black;"/>
   <text width="94" height="20" x="150" y="507" style="fill:black;" font-family="Arial" font-size="16px">status_id</text>
   <rect width="94" height="20" x="145" y="513" style="fill:none;stroke:black;"/>
   <text width="94" height="20" x="150" y="527" style="fill:black;" font-family="Arial" font-size="16px">home_odds</text>
   <rect width="94" height="20" x="145" y="533" style="fill:none;stroke:black;"/>
   <text width="94" height="20" x="150" y="547" style="fill:black;" font-family="Arial" font-size="16px">away_odds</text>
   <rect width="94" height="20" x="145" y="553" style="fill:none;stroke:black;"/>
   <text width="94" height="20" x="150" y="567" style="fill:black;" font-family="Arial" font-size="16px">draw_odds</text>
   <rect width="94" height="20" x="145" y="573" style="fill:none;stroke:black;"/>
   <text width="94" height="20" x="150" y="587" style="fill:black;" font-family="Arial" font-size="16px">result_id</text>
   <rect width="118" height="20" x="446" y="93" style="fill:#007;stroke:black;"/>
   <text width="118" height="20" x="451" y="107" style="fill:#fff;" font-family="Arial" font-size="16px"> users</text>
   <rect width="118" height="20" x="446" y="113" style="fill:#aea;stroke:black;"/>
   <text width="118" height="20" x="451" y="127" style="fill:black;" font-family="Arial" font-size="16px">user_id</text>
   <rect width="118" height="20" x="446" y="133" style="fill:none;stroke:black;"/>
   <text width="118" height="20" x="451" y="147" style="fill:black;" font-family="Arial" font-size="16px">username</text>
   <rect width="118" height="20" x="446" y="153" style="fill:none;stroke:black;"/>
   <text width="118" height="20" x="451" y="167" style="fill:black;" font-family="Arial" font-size="16px">email</text>
   <rect width="118" height="20" x="446" y="173" style="fill:none;stroke:black;"/>
   <text width="118" height="20" x="451" y="187" style="fill:black;" font-family="Arial" font-size="16px">password_hash</text>
   <rect width="118" height="20" x="446" y="193" style="fill:none;stroke:black;"/>
   <text width="118" height="20" x="451" y="207" style="fill:black;" font-family="Arial" font-size="16px">role_id</text>
   <rect width="118" height="20" x="446" y="213" style="fill:none;stroke:black;"/>
   <text width="118" height="20" x="451" y="227" style="fill:black;" font-family="Arial" font-size="16px">points</text>
   <rect width="82" height="20" x="762" y="137" style="fill:#007;stroke:black;"/>
   <text width="82" height="20" x="767" y="151" style="fill:#fff;" font-family="Arial" font-size="16px"> user_roles</text>
   <rect width="82" height="20" x="762" y="157" style="fill:#aea;stroke:black;"/>
   <text width="82" height="20" x="767" y="171" style="fill:black;" font-family="Arial" font-size="16px">role_id</text>
   <rect width="82" height="20" x="762" y="177" style="fill:none;stroke:black;"/>
   <text width="82" height="20" x="767" y="191" style="fill:black;" font-family="Arial" font-size="16px">role_name</text>
</svg>
